<svg xmlns="http://www.w3.org/2000/svg" viewBox="0 0 496.2 496.2"><path d="M496.2 248.1C496.2 111.1 385.1 0 248.1 0S0 111.1 0 248.1s111.1 248.1 248.1 248.1 248.1-111.1 248.1-248.1z" fill="#32bea6"/><path d="M283.7 404.1c0 7.7-6.3 14-14 14H140.3c-7.7 0-14-6.3-14-14v-329c0-7.7 6.3-14 14-14h129.3c7.7 0 14 6.3 14 14v329h.1z" fill="#fff"/><path d="M390.9 421.1c0 7.7-6.3 14-14 14h-9.8c-5.3-2-73.7-25.2-73.7-31.2l86.9-228.7h9.7l.9 245.9z" fill="#cfd1d1"/><path d="M381.1 421.1c0 7.7-6.3 14-14 14 0 0-72.8-17.5-74.3-18.1-5.3-2-9.1-7.1-9.1-13.1V182l96.7-6.9.7 246z" fill="#fff"/><path fill="#c7c9c9" stroke="#ededed" stroke-width=".995" stroke-miterlimit="10" d="M372.6 417.4l-67.5-15.3V205.4l67.5-4z"/><path fill="#e0e2e2" d="M291.1 394.1l14 8V205.4l-13.9.7z"/><path d="M362.8 302.1c0 .2-.2.4-.4.4h-5.3c-.2 0-.4-.2-.4-.4v-.5c0-.2.2-.4.4-.4h5.4c.2 0 .4.2.4.4v.5h-.1z" fill="#48a1af"/><path d="M365.9 312.1c0-4.3-3.3-7.8-3.3-7.8-.3-.6-.2-4.4-.2-4.4h-5.3s.1 3.9-.2 4.4c0 0-3.3 3.5-3.3 7.8 0 0 0 .8.2 1.9.1.7.5 1.6.5 2.5s-.5 1.9-.5 2.8v3.5c0 1.7.6 6.5.6 7.6s-.6 2.2-.6 3.5v5.9s.3 2.7 5.9 2.7c5.7 0 5.9-2.7 5.9-2.7v-5.9c0-1.4-.6-2.4-.6-3.5s.6-5.9.6-7.6v-3.5c0-.9-.5-1.8-.5-2.8 0-.9.4-1.8.5-2.5.3-1.1.3-1.9.3-1.9z" fill="#e3ebee"/><path d="M359.8 299.9h-2.6s.1 3.9-.2 4.4c0 0-3.3 3.5-3.3 7.8 0 0 0 .8.2 1.9.1.7.5 1.6.5 2.5s-.5 1.9-.5 2.8v3.5c0 1.7.6 6.5.6 7.6s-.6 2.2-.6 3.5v5.9s.3 2.7 5.9 2.7v-42.6z" fill="#f7fbfc"/><path d="M353.7 312.8c0 .3.1.7.1 1.2.1.7.5 1.6.5 2.5s-.5 1.9-.5 2.8v3.5c0 1.7.6 6.5.6 7.6s-.6 2.2-.6 3.5v5.9s2.2-1.6 5.9-1.6 5.9 1.6 5.9 1.6v-5.9c0-1.4-.6-2.4-.6-3.5s.6-5.9.6-7.6v-3.5c0-.9-.5-1.8-.5-2.8 0-.9.4-1.8.5-2.5.1-.5.1-.9.2-1.2 0 0-3.1-.3-6.2-.3-2.9 0-5.9.3-5.9.3z" fill="#9cc9d3"/><path d="M363.1 302.9c0 .2-.2.4-.4.4h-5.8c-.2 0-.4-.2-.4-.4v-.5c0-.2.2-.4.4-.4h5.8c.2 0 .4.2.4.4v.5z" fill="#48a1af"/><path d="M359.8 303.2h-2.9c-.2 0-.4-.2-.4-.4v-.5c0-.2.2-.4.4-.4h2.9v1.3z" fill="#5cb6bf"/><path d="M362.7 304.3c0-.1-.1-.2-.1-.4h-5.5c0 .2-.1.3-.1.4h5.7z" fill="#abd6d6"/><path d="M359.8 303.9H357c0 .2-.1.3-.1.4h2.9v-.4z" fill="#bfe2e1"/><path d="M363.2 303.1c0 .1 0 .1-.1.1h-6.7c-.1 0-.1 0-.1-.1v-.2c0-.1 0-.1.1-.1h6.7c.1 0 .1 0 .1.1v.2z" fill="#48a1af"/><path d="M359.8 302.9h-3.3c-.1 0-.1 0-.1.1v.2c0 .1 0 .1.1.1h3.3v-.4z" fill="#5cb6bf"/><path d="M362 299.3h-4.4c-1.2 0-1.1.9-1.1.9v1.4c0 .1 0 .2.2.2h6.1c.2 0 .2-.1.2-.2v-1.4s.2-.9-1-.9z" fill="#48a1af"/><path d="M359.8 299.3h-2.2c-1.2 0-1.1.9-1.1.9v1.4c0 .1 0 .2.2.2h3.1v-2.5z" fill="#5cb6bf"/><path d="M359.8 312.5c-3 0-6.1.4-6.1.4 0 .3.1.7.1 1.2.1.7.5 1.6.5 2.5s-.5 1.9-.5 2.8v3.5c0 1.7.6 6.5.6 7.6s-.6 2.2-.6 3.5v5.9s.3 2.7 5.9 2.7l.1-30.1z" fill="#cae2e8"/><path d="M328.9 299.2c0 .2-.2.4-.4.4h-5.4c-.2 0-.4-.2-.4-.4v-.5c0-.2.2-.4.4-.4h5.4c.2 0 .4.2.4.4v.5z" fill="#48a1af"/><path d="M332 309.2c0-4.3-3.3-7.8-3.3-7.8-.3-.6-.2-4.4-.2-4.4h-5.3s.1 3.9-.2 4.4c0 0-3.3 3.5-3.3 7.8 0 0 0 .8.2 1.9.1.7.5 1.6.5 2.5s-.5 1.9-.5 2.8v3.5c0 1.7.6 6.5.6 7.6s-.6 2.2-.6 3.5v5.9s.3 2.7 5.9 2.7c5.7 0 5.9-2.7 5.9-2.7V331c0-1.4-.6-2.4-.6-3.5s.6-5.9.6-7.6v-3.5c0-.9-.5-1.8-.5-2.8 0-.9.4-1.8.5-2.5.3-1.2.3-1.9.3-1.9z" fill="#e3ebee"/><path d="M332 309.2c0-2-.7-3.9-1.5-5.3h-9.3c-.8 1.4-1.5 3.2-1.5 5.3 0 0 0 .8.2 1.9.1.7.5 1.6.5 2.5s-.5 1.9-.5 2.8v3.5c0 1.7.6 6.5.6 7.6s-.6 2.2-.6 3.5v5.9s.3 2.7 5.9 2.7c5.7 0 5.9-2.7 5.9-2.7V331c0-1.4-.6-2.4-.6-3.5s.6-5.9.6-7.6v-3.5c0-.9-.5-1.8-.5-2.8 0-.9.4-1.8.5-2.5.3-1.2.3-1.9.3-1.9z" fill="#9cc9d3"/><path d="M325.8 296.9h-2.6s.1 3.9-.2 4.4c0 0-3.3 3.5-3.3 7.8 0 0 0 .8.2 1.9.1.7.5 1.6.5 2.5s-.5 1.9-.5 2.8v3.5c0 1.7.6 6.5.6 7.6s-.6 2.2-.6 3.5v5.9s.3 2.7 5.9 2.7v-42.6z" fill="#f7fbfc"/><path d="M329.1 299.9c0 .2-.2.4-.4.4h-5.8c-.2 0-.4-.2-.4-.4v-.5c0-.2.2-.4.4-.4h5.8c.2 0 .4.2.4.4v.5z" fill="#48a1af"/><path d="M325.8 300.3h-2.9c-.2 0-.4-.2-.4-.4v-.5c0-.2.2-.4.4-.4h2.9v1.3z" fill="#5cb6bf"/><path d="M328.7 301.4c0-.1-.1-.2-.1-.4h-5.5c0 .2-.1.3-.1.4h5.7z" fill="#abd6d6"/><path d="M325.8 300.9h-2.7c0 .2-.1.3-.1.4h2.9v-.4h-.1z" fill="#bfe2e1"/><path d="M329.3 300.2c0 .1 0 .1-.1.1h-6.7c-.1 0-.1 0-.1-.1v-.2c0-.1 0-.1.1-.1h6.7c.1 0 .1 0 .1.1v.2z" fill="#48a1af"/><path d="M325.8 299.9h-3.3c-.1 0-.1 0-.1.1v.2c0 .1 0 .1.1.1h3.3v-.4z" fill="#5cb6bf"/><path d="M328 296.3h-4.4c-1.2 0-1.1.9-1.1.9v1.4c0 .1 0 .2.2.2h6.1c.2 0 .2-.1.2-.2v-1.4s.2-.9-1-.9z" fill="#48a1af"/><path d="M325.8 296.3h-2.2c-1.2 0-1.1.9-1.1.9v1.4c0 .1 0 .2.2.2h3.1v-2.5z" fill="#5cb6bf"/><path d="M321.2 303.9c-.8 1.4-1.5 3.2-1.5 5.3 0 0 0 .8.2 1.9.1.7.5 1.6.5 2.5s-.5 1.9-.5 2.8v3.5c0 1.7.6 6.5.6 7.6s-.6 2.2-.6 3.5v5.9s.3 2.7 5.9 2.7V304l-4.6-.1z" fill="#cae2e8"/><path d="M312.8 298.6c0 .2-.2.4-.4.4h-5.3c-.2 0-.4-.2-.4-.4v-.5c0-.2.2-.4.4-.4h5.4c.2 0 .4.2.4.4v.5h-.1z" fill="#48a1af"/><path d="M315.9 308.6c0-4.3-3.3-7.8-3.3-7.8-.3-.6-.2-4.4-.2-4.4h-5.3s.1 3.9-.2 4.4c0 0-3.3 3.5-3.3 7.8 0 0 0 .8.2 1.9.1.7.5 1.6.5 2.5s-.5 1.9-.5 2.8v3.5c0 1.7.6 6.5.6 7.6s-.6 2.2-.6 3.5v5.9s.3 2.7 5.9 2.7c5.7 0 5.9-2.7 5.9-2.7v-5.9c0-1.4-.6-2.4-.6-3.5s.6-5.9.6-7.6v-3.5c0-.9-.5-1.8-.5-2.8 0-.9.4-1.8.5-2.5.3-1.1.3-1.9.3-1.9z" fill="#e3ebee"/><path d="M315.9 308.6c0-2-.7-3.9-1.5-5.3h-9.3c-.8 1.4-1.5 3.2-1.5 5.3 0 0 0 .8.2 1.9.1.7.5 1.6.5 2.5s-.5 1.9-.5 2.8v3.5c0 1.7.6 6.5.6 7.6s-.6 2.2-.6 3.5v5.9s.3 2.7 5.9 2.7c5.7 0 5.9-2.7 5.9-2.7v-5.9c0-1.4-.6-2.4-.6-3.5s.6-5.9.6-7.6v-3.5c0-.9-.5-1.8-.5-2.8 0-.9.4-1.8.5-2.5.3-1.1.3-1.9.3-1.9z" fill="#9cc9d3"/><path d="M309.8 296.4h-2.7s.1 3.9-.2 4.4c0 0-3.3 3.5-3.3 7.8 0 0 0 .8.2 1.9.1.7.5 1.6.5 2.5s-.5 1.9-.5 2.8v3.5c0 1.7.6 6.5.6 7.6s-.6 2.2-.6 3.5v5.9s.3 2.7 5.9 2.7v-42.6h.1z" fill="#f7fbfc"/><path d="M313 299.3c0 .2-.2.4-.4.4h-5.8c-.2 0-.4-.2-.4-.4v-.5c0-.2.2-.4.4-.4h5.8c.2 0 .4.2.4.4v.5z" fill="#48a1af"/><path d="M309.7 299.7h-2.9c-.2 0-.4-.2-.4-.4v-.5c0-.2.2-.4.4-.4h2.9v1.3z" fill="#5cb6bf"/><path d="M312.6 300.8c0-.1-.1-.2-.1-.4H307c0 .2-.1.3-.1.4h5.7z" fill="#abd6d6"/><path d="M309.8 300.4H307c0 .2-.1.3-.1.4h2.9v-.4z" fill="#bfe2e1"/><path d="M313.2 299.6c0 .1 0 .1-.1.1h-6.7c-.1 0-.1 0-.1-.1v-.2c0-.1 0-.1.1-.1h6.7c.1 0 .1 0 .1.1v.2z" fill="#48a1af"/><path d="M309.7 299.3h-3.3c-.1 0-.1 0-.1.1v.2c0 .1 0 .1.1.1h3.3v-.4z" fill="#5cb6bf"/><path d="M311.9 295.7h-4.4c-1.2 0-1.1.9-1.1.9v1.4c0 .1 0 .2.2.2h6.1c.2 0 .2-.1.2-.2v-1.4s.2-.9-1-.9z" fill="#48a1af"/><path d="M309.7 295.7h-2.2c-1.2 0-1.1.9-1.1.9v1.4c0 .1 0 .2.2.2h3.1v-2.5z" fill="#5cb6bf"/><path d="M305.1 303.3c-.8 1.4-1.5 3.2-1.5 5.3 0 0 0 .8.2 1.9.1.7.5 1.6.5 2.5s-.5 1.9-.5 2.8v3.5c0 1.7.6 6.5.6 7.6s-.6 2.2-.6 3.5v5.9s.3 2.7 5.9 2.7v-35.6l-4.6-.1z" fill="#cae2e8"/><g fill="#fff"><path d="M373.8 351.9l-82.7-6.6v-21.4l82 3.4zM374.8 285.2l-83.7-1.1v-18l83.1-.3z"/></g><g fill="#edaf6b"><path d="M322.3 222.7c.6 4.5-1.9 7.7-5.6 8.2s-7-1.8-7.6-6.4c-.6-4.5 1.6-10.1 5.3-10.6s7.3 4.3 7.9 8.8zM339.6 224.3c-.4 4.6-3.7 7-7.4 6.7-3.7-.4-6.4-3.4-5.9-8 .4-4.6 3.9-9.4 7.6-9.1 3.7.4 6.1 5.9 5.7 10.4zM356.6 221.4c1.1 4.4-1.2 7.9-4.7 8.7-3.6.9-7.2-1.1-8.2-5.6-1.1-4.4.6-10.2 4.2-11 3.4-.8 7.6 3.5 8.7 7.9z"/></g><path fill="#fff" d="M373.8 244.1l-82.7 1.3v-18.3l82-3z"/><path d="M361.6 357.7c0 .2-.2.4-.4.4h-5.5c-.2 0-.4-.2-.4-.4v-.5c0-.2.2-.4.4-.4h5.5c.2 0 .4.2.4.4v.5z" fill="#48a1af"/><path d="M367.7 375.5c0-9.6-6.2-15.6-6.2-15.6-.3-.6-.2-4.5-.2-4.5h-5.4s.1 4-.2 4.5c0 0-6.2 6.2-6.2 15.6s1.1 10.6 1.1 15.1c0 1.7-1.2 3.6-1.2 9.4v17s.8 4.2 9.2 4.2c8.4 0 9.2-4.2 9.2-4.2v-17c0-5.6-1.2-7.7-1.2-9.4-.1-4.6 1.1-5.5 1.1-15.1z" fill="#e3ebee"/><path d="M358.5 355.4h-2.7s.1 4-.2 4.5c0 0-6.2 6.2-6.2 15.6s1.1 10.6 1.1 15.1c0 1.7-1.2 3.6-1.2 9.4v17s.8 4.2 9.2 4.2v-65.8z" fill="#f7fbfc"/><path d="M361.9 358.4c0 .2-.2.4-.4.4h-5.9c-.2 0-.4-.2-.4-.4v-.5c0-.2.2-.4.4-.4h5.9c.2 0 .4.2.4.4v.5z" fill="#48a1af"/><path d="M358.5 358.8h-2.9c-.2 0-.4-.2-.4-.4v-.5c0-.2.2-.4.4-.4h2.9v1.3z" fill="#5cb6bf"/><path d="M361.4 359.9c0-.1-.1-.2-.1-.4h-5.6c0 .2-.1.3-.1.4h5.8z" fill="#abd6d6"/><path d="M358.5 359.5h-2.8c0 .2-.1.3-.1.4h2.9v-.4z" fill="#bfe2e1"/><path d="M362 358.7c0 .1-.1.1-.1.1h-6.8c-.1 0-.1-.1-.1-.1v-.2c0-.1.1-.1.1-.1h6.8c.1 0 .1.1.1.1v.2z" fill="#48a1af"/><path d="M358.5 358.4h-3.4c-.1 0-.1.1-.1.1v.2c0 .1.1.1.1.1h3.4v-.4z" fill="#5cb6bf"/><path d="M360.8 354.7h-4.5c-1.2 0-1.1.9-1.1.9v1.4c0 .1 0 .2.2.2h6.3c.2 0 .2-.1.2-.2v-1.4s.1-.9-1.1-.9z" fill="#48a1af"/><path d="M358.5 354.7h-2.2c-1.2 0-1.1.9-1.1.9v1.4c0 .1 0 .2.2.2h3.1v-2.5z" fill="#5cb6bf"/><path d="M367.7 375.5c0-5.8-2.3-10.4-4.1-13h-10c-1.8 2.7-4.2 7.2-4.2 13.1 0 9.5 1.1 10.6 1.1 15.1 0 1.7-1.2 3.6-1.2 9.4v17s.8 4.2 9.2 4.2c8.4 0 9.2-4.2 9.2-4.2v-17c0-5.6-1.2-7.7-1.2-9.4 0-4.7 1.2-5.6 1.2-15.2z" fill="#90c7d3"/><path d="M367.7 375.5c0-5.8-2.3-10.4-4.1-13h-10c-1.8 2.7-4.2 7.2-4.2 13.1 0 9.5 1.1 10.6 1.1 15.1 0 1.7-1.2 3.6-1.2 9.4v17s4.5-1.9 9.2-1.9 9.2 1.9 9.2 1.9v-17c0-5.6-1.2-7.7-1.2-9.4 0-4.7 1.2-5.6 1.2-15.2z" fill="#48a1af"/><path d="M358.5 362.5h-5c-1.8 2.7-4.2 7.2-4.2 13.1 0 9.5 1.1 10.6 1.1 15.1 0 1.7-1.2 3.6-1.2 9.4v17s.8 4.2 9.2 4.2l.1-58.8z" fill="#5cb6bf"/><path d="M335 355.3c0 .2-.2.4-.4.4h-5.5c-.2 0-.4-.2-.4-.4v-.5c0-.2.2-.4.4-.4h5.5c.2 0 .4.2.4.4v.5z" fill="#c6bd20"/><path d="M341 373.2c0-9.6-6.2-15.6-6.2-15.6-.3-.6-.2-4.5-.2-4.5h-5.4s.1 4-.2 4.5c0 0-6.2 6.2-6.2 15.6s1.1 10.6 1.1 15.1c0 1.7-1.2 3.6-1.2 9.4v17s.8 4.2 9.2 4.2c8.4 0 9.2-4.2 9.2-4.2v-17c0-5.6-1.2-7.7-1.2-9.4 0-4.6 1.1-5.5 1.1-15.1z" fill="#e3ebee"/><path d="M331.8 353h-2.7s.1 4-.2 4.5c0 0-6.2 6.2-6.2 15.6s1.1 10.6 1.1 15.1c0 1.7-1.2 3.6-1.2 9.4v17s.8 4.2 9.2 4.2V353z" fill="#f7fbfc"/><path d="M335.2 356.1c0 .2-.2.4-.4.4h-5.9c-.2 0-.4-.2-.4-.4v-.5c0-.2.2-.4.4-.4h5.9c.2 0 .4.2.4.4v.5z" fill="#d6d11e"/><path d="M331.8 356.5h-2.9c-.2 0-.4-.2-.4-.4v-.5c0-.2.2-.4.4-.4h2.9v1.3z" fill="#eae134"/><path d="M334.8 357.6c0-.1-.1-.2-.1-.4h-5.6c0 .2-.1.3-.1.4h5.8z" fill="#abd6d6"/><path d="M331.8 357.1H329c0 .2-.1.3-.1.4h2.9v-.4z" fill="#bfe2e1"/><path d="M335.4 356.3c0 .1-.1.1-.1.1h-6.8c-.1 0-.1-.1-.1-.1v-.2c0-.1.1-.1.1-.1h6.8c.1 0 .1.1.1.1v.2z" fill="#d6d11e"/><path d="M331.8 356.1h-3.4c-.1 0-.1.1-.1.1v.2c0 .1.1.1.1.1h3.4v-.4z" fill="#eae134"/><path d="M334.1 352.4h-4.5c-1.2 0-1.1.9-1.1.9v1.4c0 .1 0 .2.2.2h6.3c.2 0 .2-.1.2-.2v-1.4s.1-.9-1.1-.9z" fill="#d6d11e"/><path d="M331.8 352.4h-2.2c-1.2 0-1.1.9-1.1.9v1.4c0 .1 0 .2.2.2h3.1v-2.5z" fill="#eae134"/><path d="M341 373.2c0-5.8-2.3-10.4-4.1-13h-10c-1.8 2.7-4.2 7.2-4.2 13.1 0 9.5 1.1 10.6 1.1 15.1 0 1.7-1.2 3.6-1.2 9.4v17s.8 4.2 9.2 4.2c8.4 0 9.2-4.2 9.2-4.2v-17c0-5.6-1.2-7.7-1.2-9.4.1-4.7 1.2-5.6 1.2-15.2z" fill="#90c7d3"/><path d="M341 373.2c0-5.8-2.3-10.4-4.1-13h-10c-1.8 2.7-4.2 7.2-4.2 13.1 0 9.5 1.1 10.6 1.1 15.1 0 1.7-1.2 3.6-1.2 9.4v17s4.5-1.9 9.2-1.9 9.2 1.9 9.2 1.9v-17c0-5.6-1.2-7.7-1.2-9.4.1-4.7 1.2-5.6 1.2-15.2z" fill="#d6d11e"/><path d="M331.8 360.2h-5c-1.8 2.7-4.2 7.2-4.2 13.1 0 9.5 1.1 10.6 1.1 15.1 0 1.7-1.2 3.6-1.2 9.4v17s.8 4.2 9.2 4.2l.1-58.8z" fill="#eae134"/><path fill="#fff" d="M373.2 428.6L291.1 411v-23.7l82 12z"/><path d="M273.6 400.4H136.4V209.3c0-6.8 5.5-12.2 12.2-12.2h112.8c6.8 0 12.2 5.5 12.2 12.2v191.1z" fill="#cfd1d1"/><g fill="#cccaca"><path d="M126.3 177.5h157.4v4.5H126.3zM283.3 182h.7v222.8h-.7z"/></g><path d="M150.5 140c0 16.8-2.4 23.4-5.3 23.4s-5.3-6.6-5.3-23.4c0-16.8 2.4-23.4 5.3-23.4 2.9.1 5.3 6.6 5.3 23.4z" fill="#c1c1c1"/><path d="M145.2 163.4c-2.9 0-5.3-6.6-5.3-23.4 0-16.8 2.4-23.4 5.3-23.4 2.9.1 2.9 46.8 0 46.8z" fill="#e0dede"/><path d="M248 212.4c-1.4.9-2.5 2.4-3.1 4.2-1.8-.2-3.6.1-5 1-3.8 2.4-5.4 8.6-.2 13.3 4.7 4.3 9.1 6.3 12.9 3.9 1.1-.7 2.3-1.7 2.5-2.3.7 0 2-.6 3-1.3 3.8-2.4 3.9-7.3 2-13.3-2-6.7-8.3-7.9-12.1-5.5z" fill="#83b041"/><g fill="#7d3719"><path d="M245.6 218.2s-1.2-2.8-2.9-4.1 1-.4 1-.4l2.2 4.3-.3.2zM254.3 232.2l.3.9.3-.6.6.2-.1-.5.6-.2-1.1-.5z"/></g><path d="M248.1 213.2c-1.4.9-2.3 2.3-2.9 3.9-1.7-.2-3.3.1-4.6 1-3.6 2.3-5 8-.2 12.4 4.3 4 8.5 5.9 12 3.6 1-.6 2.1-1.6 2.3-2.1.7 0 1.9-.6 2.8-1.2 3.6-2.3 3.6-6.8 1.8-12.4-1.8-6.3-7.6-7.4-11.2-5.2z" fill="#8bc53f"/><path d="M249.8 216.3s3.1-.6 5.4 1.3c0 0-1.7-5-5.4-1.3z" fill="#fff"/><path d="M211.5 216.3c-1.6-.5-3.4-.3-5.1.4-1-1.5-2.4-2.6-4-3-4.3-1.3-9.9 1.6-10.1 8.6-.2 6.3 1.3 10.9 5.6 12.2 1.2.4 2.8.6 3.4.4.5.5 1.8 1.1 3 1.4 4.3 1.3 8-1.8 11.2-7.3 3.5-6 .4-11.4-4-12.7z" fill="#ca2027"/><g fill="#7d3719"><path d="M205.6 218.3s1.3-2.7 1.2-4.8.9.5.9.5l-1.8 4.5-.3-.2zM200.9 233.9l-.5.8.7-.1.2.5.4-.3.4.3-.3-1.2z"/></g><path d="M211 216.9c-1.5-.4-3.2-.3-4.8.4-1-1.4-2.3-2.4-3.8-2.8-4-1.2-9.2 1.5-9.4 8-.2 5.9 1.2 10.1 5.2 11.3 1.1.3 2.6.5 3.1.3.4.5 1.7 1 2.8 1.3 4 1.2 7.4-1.7 10.5-6.7 3.4-5.6.4-10.6-3.6-11.8z" fill="#e92c25"/><path d="M210.7 219.9s2.2 1.6 2.2 4.2c0 0 2.3-3.9-2.2-4.2z" fill="#fff"/><path d="M203.1 212.3c-.1.6.8 1.7 2.1 1.8 1.3.2 2.4-.2 2.5-.8.2-1.6-4.6-1-4.6-1z" fill="#1d9e49"/><g fill="#7d3719"><path d="M167.2 218.5s2.7-1.7 3.7-3.7c1-1.9.5.9.5.9l-4.1 3-.1-.2zM154.2 229.9l-.9.4.7.3-.1.6.5-.1.3.5.4-1.2z"/></g><path d="M172.9 220.3c-1.1-1.3-2.7-2-4.5-2.3-.1-1.8-.7-3.4-1.8-4.7-3-3.3-9.1-3.8-12.9 1.9-3.4 5.2-4.6 9.8-1.7 13.1.8.9 2 1.9 2.6 2.1.1.7.9 1.8 1.7 2.7 3 3.3 7.6 2.6 13.2-.2 6.1-3.1 6.3-9.3 3.4-12.6z" fill="#d7c527"/><path d="M170.2 222.1s1.1 3.4-1 6.7c0-.1 5.9-3.4 1-6.7z" fill="#fff"/><g fill="#ededed"><path d="M143.9 233.5h121v5h-121zM143.9 267.3h121v5h-121z"/></g><path d="M188.4 295.5c-.2 5.1-10.3 9-19.5 9-9.8 0-19.1-5.7-17.5-11.1.1-.4-.9-5.1.1-5.5 2.9-1.2 9.4 3.6 17.2 3.6 8.4 0 15.7-6.8 19.2-4.5.8.6.5 7.8.5 8.5z" fill="#f9ece4"/><path d="M187.9 287c3.1 5.8-8.5 11.9-18.9 11.9s-20.4-7.4-17.1-13c4.1-7 6.4-.8 16.9-.8s15.5-4.8 19.1 1.9z" fill="#f5d1af"/><path d="M187.1 287.2c2.9 5.6-8.1 11.4-18.1 11.4s-19.6-7.1-16.4-12.5c3.9-6.7 6.2-.7 16.2-.7s14.9-4.7 18.3 1.8z" fill="#952e25"/><g fill="#f9ece4"><path d="M162.4 284.4s2.3 1.1 1.1 3.3c0 0 1.9-1.1 2.6-2.6l-3.7-.7zM177.3 288.4c0 .7-1 1.2-2.2 1.2s-2.2-.6-2.2-1.2c0-.7 1.4-.8 2.6-.8s1.8.1 1.8.8z"/></g><path fill="#ededed" d="M143.9 301.1h121v5h-121z"/><path d="M249.9 326.5s8.1-3.1 7.7-.8c0 0-.1 2.3.3 3.9 0 0 .7 2.5-2 2 0 0-5.9-1.7-7.3-1.5l1.3-3.6z" fill="#fff"/><path d="M249.6 331.4c-1.8 0-3.2-.9-3.2-2.1V327c0-1.2 1.4-2.1 3.2-2.1 1.8 0 3.2.9 3.2 2.1v2.3c0 1.2-1.5 2.1-3.2 2.1z" fill="#eb7623"/><path d="M240.1 322.7s-3.4-3.7-5-4.8c0 0-11-6.6-18-5.2 0 0-13.7 4.8-14.2 11 0 0-7.4 15.4 26.3 13.1 4.7-.3 9.5-2.9 11.2-3.5 0 0 5-.8 6.6-1 0 0 5-.9 4.1-6.3-.1.2.1-2.8-11-3.3z" fill="#e48225"/><path d="M240.3 323.7c7.8.3 10 1.9 10.7 2.8v-.3s.1-3-10.9-3.4c0 0-3.4-3.7-5-4.8 0 0-11-6.6-18-5.2 0 0-13.7 4.8-14.2 11 0 0 .2 0 .4.1 2-5.7 37-.2 37-.2z" fill="#f69220"/><g fill="#ededed"><path d="M143.9 334.9h121v5h-121zM143.4 350h58v44.9h-58z"/></g><path fill="#d4d6d6" d="M143.4 356.1h58v3h-58z"/><path fill="#ededed" d="M207.4 350h58v44.9h-58z"/><path fill="#d4d6d6" d="M207.4 356.1h58v3h-58z"/></svg>